# xmcd
#
# Track frame offsets: 
#        150
#        13303
#        31625
#        43362
#        68312
#        81315
#        98220
#        116175
#        130138
#        145452
#        163028
#        177687
#        191209
#        205104
#        219808
#        234755
#        244226
#        266097
#
# Disc length: 3734 seconds
#
# Revision: 0
# Processed by: cddbd v1.5.2PL0 Copyright (c) Steve Scherf et al.
# Submitted via: ExactAudioCopy v1.0b3
#
DISCID=070e9412
DTITLE=Mahalia Jackson - The Complete Mahalia Jackson, Vol. 11: 1960 
DYEAR=2013
DGENRE=Gospel
TTITLE0=Holy, Holy, Holy
TTITLE1=Nearer My God to Thee
TTITLE2=My Country Tis of Thee
TTITLE3=The Holy City
TTITLE4=Onward Christian Soldiers
TTITLE5=The Lord Is My Light
TTITLE6=Lift Up Your Heads
TTITLE7=Abide With Me
TTITLE8=I See God
TTITLE9=I'm Grateful
TTITLE10=Trouble
TTITLE11=I Asked the Lord
TTITLE12=Somebody Bigger Than You and I
TTITLE13=Always Look Up, Never Look Down
TTITLE14=Holding My Saviour's Hand
TTITLE15=My God and I
TTITLE16=I Hear the Angels
TTITLE17=I Believe
EXTD=
EXTT0=
EXTT1=
EXTT2=
EXTT3=
EXTT4=
EXTT5=
EXTT6=
EXTT7=
EXTT8=
EXTT9=
EXTT10=
EXTT11=
EXTT12=
EXTT13=
EXTT14=
EXTT15=
EXTT16=
EXTT17=
PLAYORDER=
